# xmcd
#
# Track frame offsets: 
#        150
#        16380
#        36109
#        51310
#        67821
#        83706
#        104561
#        116275
#        133309
#        148175
#        164558
#        178986
#
# Disc length: 2527 seconds
#
# Revision: 1
# Processed by: cddbd v1.5.1PL2 Copyright (c) Steve Scherf et al.
# Submitted via: ExactAudioCopy v0.95b4
#
DISCID=ad09dd0c
DTITLE=Pepe Aguilar - Colección de oro 1
DYEAR=1900
DGENRE=Ranchera
TTITLE0=Botellita de Tequila
TTITLE1=Me Vas a Extrañar
TTITLE2=Que sepan todos
TTITLE3=Albur de Amor
TTITLE4=Perdoname
TTITLE5=Ya para que
TTITLE6=Ay María
TTITLE7=Quien Entiende a las Mujeres
TTITLE8=Llamarada
TTITLE9=Lo que no fue no será
TTITLE10=Recuerdame Bonito
TTITLE11=El Viejo Naranjo
EXTD=Pepe Aguiilar colección de Oro
EXTT0=
EXTT1=
EXTT2=
EXTT3=
EXTT4=
EXTT5=
EXTT6=
EXTT7=
EXTT8=
EXTT9=
EXTT10=
EXTT11=
PLAYORDER=
